STARTFONT 2.3
FONT -FontForge-Fredoka One-Book-R-Normal--8-80-72-72-P-46-ISO10646-1
SIZE 8 72 72  2
FONTBOUNDINGBOX 11 10 -1 -2
COMMENT "Generated by fontforge, http://fontforge.sourceforge.net"
COMMENT "Copyright (c) 2011 Milena B Brandao (milenabbrandao@gmail.com), with Reserved Font Name "Fredoka""
STARTPROPERTIES 40
FOUNDRY "FontForge"
FAMILY_NAME "Fredoka One"
WEIGHT_NAME "Book"
SLANT "R"
SETWIDTH_NAME "Normal"
ADD_STYLE_NAME ""
PIXEL_SIZE 8
POINT_SIZE 80
RESOLUTION_X 72
RESOLUTION_Y 72
SPACING "P"
AVERAGE_WIDTH 46
CHARSET_REGISTRY "ISO10646"
CHARSET_ENCODING "1"
FONTNAME_REGISTRY ""
CHARSET_COLLECTIONS "ISO10646-1"
BITS_PER_PIXEL 2
FONT_NAME "FredokaOne-Regular"
FACE_NAME "Fredoka One"
COPYRIGHT "Copyright (c) 2011 Milena B Brandao (milenabbrandao@gmail.com), with Reserved Font Name "Fredoka""
FONT_VERSION "1.001"
FONT_ASCENT 6
FONT_DESCENT 2
UNDERLINE_POSITION -1
UNDERLINE_THICKNESS 1
X_HEIGHT 3
CAP_HEIGHT 5
RAW_ASCENT 800
RAW_DESCENT 200
NORM_SPACE 2
RELATIVE_WEIGHT 40
RELATIVE_SETWIDTH 50
SUPERSCRIPT_X 0
SUPERSCRIPT_Y 3
SUPERSCRIPT_SIZE 5
SUBSCRIPT_X 0
SUBSCRIPT_Y 1
SUBSCRIPT_SIZE 5
AVG_LOWERCASE_WIDTH 47
AVG_UPPERCASE_WIDTH 54
ENDPROPERTIES
CHARS 235
STARTCHAR space
ENCODING 32
SWIDTH 253 0
DWIDTH 2 0
BBX 1 1 0 0
BITMAP
00
ENDCHAR
STARTCHAR exclam
ENCODING 33
SWIDTH 267 0
DWIDTH 2 0
BBX 2 6 0 0
BITMAP
A0
A0
A0
A0
50
A0
ENDCHAR
STARTCHAR quotedbl
ENCODING 34
SWIDTH 429 0
DWIDTH 3 0
BBX 4 3 0 3
BITMAP
98
9D
58
ENDCHAR
STARTCHAR numbersign
ENCODING 35
SWIDTH 749 0
DWIDTH 6 0
BBX 6 6 0 0
BITMAP
1880
2DD0
7EE0
6AD0
BBD0
3240
ENDCHAR
STARTCHAR dollar
ENCODING 36
SWIDTH 475 0
DWIDTH 4 0
BBX 4 7 0 -1
BITMAP
24
7D
A4
2D
A9
28
14
ENDCHAR
STARTCHAR percent
ENCODING 37
SWIDTH 838 0
DWIDTH 7 0
BBX 7 6 0 0
BITMAP
7880
9D80
7A00
06B0
09A4
14F0
ENDCHAR
STARTCHAR ampersand
ENCODING 38
SWIDTH 748 0
DWIDTH 6 0
BBX 6 6 0 0
BITMAP
2F00
3700
3D00
7D90
ABD0
7EE0
ENDCHAR
STARTCHAR quotesingle
ENCODING 39
SWIDTH 208 0
DWIDTH 2 0
BBX 2 3 0 3
BITMAP
90
90
50
ENDCHAR
STARTCHAR parenleft
ENCODING 40
SWIDTH 384 0
DWIDTH 3 0
BBX 3 8 0 -2
BITMAP
28
70
A0
90
90
A0
74
18
ENDCHAR
STARTCHAR parenright
ENCODING 41
SWIDTH 384 0
DWIDTH 3 0
BBX 3 8 0 -2
BITMAP
A0
24
18
18
18
28
74
90
ENDCHAR
STARTCHAR asterisk
ENCODING 42
SWIDTH 503 0
DWIDTH 4 0
BBX 4 4 0 2
BITMAP
28
BE
7D
69
ENDCHAR
STARTCHAR plus
ENCODING 43
SWIDTH 527 0
DWIDTH 4 0
BBX 4 4 0 0
BITMAP
18
BE
6D
14
ENDCHAR
STARTCHAR comma
ENCODING 44
SWIDTH 238 0
DWIDTH 2 0
BBX 2 3 0 -1
BITMAP
50
A0
90
ENDCHAR
STARTCHAR hyphen
ENCODING 45
SWIDTH 433 0
DWIDTH 3 0
BBX 4 2 0 1
BITMAP
54
BD
ENDCHAR
STARTCHAR period
ENCODING 46
SWIDTH 237 0
DWIDTH 2 0
BBX 2 2 0 0
BITMAP
50
A0
ENDCHAR
STARTCHAR slash
ENCODING 47
SWIDTH 526 0
DWIDTH 4 0
BBX 4 7 0 -1
BITMAP
07
0E
1C
28
70
A0
40
ENDCHAR
STARTCHAR zero
ENCODING 48
SWIDTH 608 0
DWIDTH 5 0
BBX 5 6 0 0
BITMAP
2E00
7B40
A280
A280
B740
3E00
ENDCHAR
STARTCHAR one
ENCODING 49
SWIDTH 407 0
DWIDTH 3 0
BBX 3 6 0 0
BITMAP
18
BC
6C
1C
1C
1C
ENDCHAR
STARTCHAR two
ENCODING 50
SWIDTH 609 0
DWIDTH 5 0
BBX 5 6 0 0
BITMAP
2E00
BB40
9340
1F00
7E40
BF80
ENDCHAR
STARTCHAR three
ENCODING 51
SWIDTH 608 0
DWIDTH 5 0
BBX 5 6 0 0
BITMAP
2E00
7740
1B40
0B40
A780
7F00
ENDCHAR
STARTCHAR four
ENCODING 52
SWIDTH 592 0
DWIDTH 5 0
BBX 5 6 0 0
BITMAP
2240
7340
A340
FF40
5740
0340
ENDCHAR
STARTCHAR five
ENCODING 53
SWIDTH 530 0
DWIDTH 4 0
BBX 4 6 0 0
BITMAP
7E
B9
B9
AB
5B
BD
ENDCHAR
STARTCHAR six
ENCODING 54
SWIDTH 560 0
DWIDTH 4 0
BBX 5 6 0 0
BITMAP
1A00
3A00
B400
BF00
A740
7E00
ENDCHAR
STARTCHAR seven
ENCODING 55
SWIDTH 561 0
DWIDTH 4 0
BBX 5 6 0 0
BITMAP
BF40
6B40
0E00
2C00
3800
3400
ENDCHAR
STARTCHAR eight
ENCODING 56
SWIDTH 582 0
DWIDTH 5 0
BBX 5 6 0 0
BITMAP
2E00
BB40
7F00
BB40
A740
7E00
ENDCHAR
STARTCHAR nine
ENCODING 57
SWIDTH 560 0
DWIDTH 4 0
BBX 5 6 0 0
BITMAP
2D00
AB00
BB40
2B00
5E00
B800
ENDCHAR
STARTCHAR colon
ENCODING 58
SWIDTH 238 0
DWIDTH 2 0
BBX 2 4 0 0
BITMAP
A0
50
50
A0
ENDCHAR
STARTCHAR semicolon
ENCODING 59
SWIDTH 237 0
DWIDTH 2 0
BBX 2 5 0 -1
BITMAP
A0
50
50
A0
90
ENDCHAR
STARTCHAR less
ENCODING 60
SWIDTH 627 0
DWIDTH 5 0
BBX 5 6 0 0
BITMAP
0040
0B80
7D00
B800
1F40
0280
ENDCHAR
STARTCHAR equal
ENCODING 61
SWIDTH 478 0
DWIDTH 4 0
BBX 4 4 0 0
BITMAP
14
BE
69
69
ENDCHAR
STARTCHAR greater
ENCODING 62
SWIDTH 627 0
DWIDTH 5 0
BBX 5 6 0 0
BITMAP
4000
B800
1F40
0B80
7D00
A000
ENDCHAR
STARTCHAR question
ENCODING 63
SWIDTH 512 0
DWIDTH 4 0
BBX 4 6 0 0
BITMAP
7D
AA
1E
18
14
28
ENDCHAR
STARTCHAR at
ENCODING 64
SWIDTH 908 0
DWIDTH 7 0
BBX 7 7 0 -1
BITMAP
0540
2EA0
6698
9DCC
9F8C
65F4
2E50
ENDCHAR
STARTCHAR A
ENCODING 65
SWIDTH 765 0
DWIDTH 6 0
BBX 6 6 0 0
BITMAP
0600
0F00
2F80
3AC0
BAE0
A070
ENDCHAR
STARTCHAR B
ENCODING 66
SWIDTH 646 0
DWIDTH 5 0
BBX 5 6 0 0
BITMAP
BE40
BB80
A780
A680
B6C0
BF40
ENDCHAR
STARTCHAR C
ENCODING 67
SWIDTH 679 0
DWIDTH 5 0
BBX 5 6 0 0
BITMAP
1B80
7A80
A000
A000
7980
1F80
ENDCHAR
STARTCHAR D
ENCODING 68
SWIDTH 704 0
DWIDTH 6 0
BBX 6 6 0 0
BITMAP
BE00
BBC0
A0D0
A0D0
B6C0
BE40
ENDCHAR
STARTCHAR E
ENCODING 69
SWIDTH 638 0
DWIDTH 5 0
BBX 5 6 0 0
BITMAP
BF80
BA40
BA00
BA00
B540
BF80
ENDCHAR
STARTCHAR F
ENCODING 70
SWIDTH 637 0
DWIDTH 5 0
BBX 5 6 0 0
BITMAP
BF80
BA40
BA00
BA00
A000
A000
ENDCHAR
STARTCHAR G
ENCODING 71
SWIDTH 714 0
DWIDTH 6 0
BBX 6 6 0 0
BITMAP
1F80
7A80
A280
A2D0
79D0
1F80
ENDCHAR
STARTCHAR H
ENCODING 72
SWIDTH 699 0
DWIDTH 6 0
BBX 6 6 0 0
BITMAP
A090
A0D0
BAD0
BAD0
A0D0
A0D0
ENDCHAR
STARTCHAR I
ENCODING 73
SWIDTH 257 0
DWIDTH 2 0
BBX 2 6 0 0
BITMAP
A0
A0
A0
A0
A0
A0
ENDCHAR
STARTCHAR J
ENCODING 74
SWIDTH 549 0
DWIDTH 4 0
BBX 4 6 0 0
BITMAP
06
07
07
07
AB
7D
ENDCHAR
STARTCHAR K
ENCODING 75
SWIDTH 639 0
DWIDTH 5 0
BBX 5 6 0 0
BITMAP
A280
A740
BD00
BD00
AB40
A280
ENDCHAR
STARTCHAR L
ENCODING 76
SWIDTH 587 0
DWIDTH 5 0
BBX 5 6 0 0
BITMAP
A000
A000
A000
A000
A500
BF40
ENDCHAR
STARTCHAR M
ENCODING 77
SWIDTH 870 0
DWIDTH 7 0
BBX 7 6 0 0
BITMAP
A024
B8B8
BEF8
ABA8
A128
A028
ENDCHAR
STARTCHAR N
ENCODING 78
SWIDTH 720 0
DWIDTH 6 0
BBX 6 6 0 0
BITMAP
A090
B8D0
BDD0
ABD0
A3D0
A1D0
ENDCHAR
STARTCHAR O
ENCODING 79
SWIDTH 775 0
DWIDTH 6 0
BBX 6 6 0 0
BITMAP
1B40
7AE0
A0B0
A0B0
79E0
2F80
ENDCHAR
STARTCHAR P
ENCODING 80
SWIDTH 632 0
DWIDTH 5 0
BBX 5 6 0 0
BITMAP
BE00
BB80
A280
BF40
B500
A000
ENDCHAR
STARTCHAR Q
ENCODING 81
SWIDTH 830 0
DWIDTH 7 0
BBX 7 6 0 0
BITMAP
1B40
7AE0
A0B0
A0B0
79F0
2FB4
ENDCHAR
STARTCHAR R
ENCODING 82
SWIDTH 631 0
DWIDTH 5 0
BBX 5 6 0 0
BITMAP
BE00
BB80
A280
BF40
B780
A280
ENDCHAR
STARTCHAR S
ENCODING 83
SWIDTH 583 0
DWIDTH 5 0
BBX 5 6 0 0
BITMAP
2E00
B600
B900
1B40
A740
7E00
ENDCHAR
STARTCHAR T
ENCODING 84
SWIDTH 731 0
DWIDTH 6 0
BBX 6 6 0 0
BITMAP
BFE0
5A40
0A00
0A00
0A00
0A00
ENDCHAR
STARTCHAR U
ENCODING 85
SWIDTH 726 0
DWIDTH 6 0
BBX 6 6 0 0
BITMAP
A090
A0D0
A0D0
A0D0
76D0
2F40
ENDCHAR
STARTCHAR V
ENCODING 86
SWIDTH 783 0
DWIDTH 6 0
BBX 6 6 0 0
BITMAP
9060
B0B0
34D0
2EC0
0F40
0A00
ENDCHAR
STARTCHAR W
ENCODING 87
SWIDTH 999 0
DWIDTH 8 0
BBX 8 6 0 0
BITMAP
9246
B3CE
77DD
3EBC
2D78
1C34
ENDCHAR
STARTCHAR X
ENCODING 88
SWIDTH 741 0
DWIDTH 6 0
BBX 6 6 0 0
BITMAP
A0A0
76D0
1F40
1F40
7AD0
A0A0
ENDCHAR
STARTCHAR Y
ENCODING 89
SWIDTH 686 0
DWIDTH 5 0
BBX 6 6 0 0
BITMAP
A0D0
76C0
2F40
1E00
0D00
0D00
ENDCHAR
STARTCHAR Z
ENCODING 90
SWIDTH 643 0
DWIDTH 5 0
BBX 5 6 0 0
BITMAP
BF80
6B80
0E00
2C00
7940
BFC0
ENDCHAR
STARTCHAR bracketleft
ENCODING 91
SWIDTH 348 0
DWIDTH 3 0
BBX 3 9 0 -2
BITMAP
10
B8
A0
A0
A0
A0
A0
A4
64
ENDCHAR
STARTCHAR backslash
ENCODING 92
SWIDTH 528 0
DWIDTH 4 0
BBX 4 7 0 -1
BITMAP
A0
70
38
1C
0E
07
01
ENDCHAR
STARTCHAR bracketright
ENCODING 93
SWIDTH 348 0
DWIDTH 3 0
BBX 3 9 0 -2
BITMAP
10
B4
24
24
24
24
24
74
A4
ENDCHAR
STARTCHAR asciicircum
ENCODING 94
SWIDTH 526 0
DWIDTH 4 0
BBX 4 2 0 2
BITMAP
3D
A6
ENDCHAR
STARTCHAR underscore
ENCODING 95
SWIDTH 826 0
DWIDTH 7 0
BBX 7 2 0 -2
BITMAP
5550
AAA4
ENDCHAR
STARTCHAR grave
ENCODING 96
SWIDTH 482 0
DWIDTH 4 0
BBX 2 2 1 4
BITMAP
E0
10
ENDCHAR
STARTCHAR a
ENCODING 97
SWIDTH 596 0
DWIDTH 5 0
BBX 5 4 0 0
BITMAP
7F40
A740
BB40
2F40
ENDCHAR
STARTCHAR b
ENCODING 98
SWIDTH 592 0
DWIDTH 5 0
BBX 5 6 0 0
BITMAP
A000
A000
BF00
B740
BB40
AE00
ENDCHAR
STARTCHAR c
ENCODING 99
SWIDTH 517 0
DWIDTH 4 0
BBX 4 5 0 0
BITMAP
04
7E
A5
B5
2E
ENDCHAR
STARTCHAR d
ENCODING 100
SWIDTH 598 0
DWIDTH 5 0
BBX 5 6 0 0
BITMAP
0340
0340
7F40
A740
BB40
2F40
ENDCHAR
STARTCHAR e
ENCODING 101
SWIDTH 573 0
DWIDTH 5 0
BBX 5 5 0 0
BITMAP
0400
7F00
B740
BA00
7F00
ENDCHAR
STARTCHAR f
ENCODING 102
SWIDTH 450 0
DWIDTH 4 0
BBX 4 6 0 0
BITMAP
2D
78
BD
74
34
34
ENDCHAR
STARTCHAR g
ENCODING 103
SWIDTH 585 0
DWIDTH 5 0
BBX 5 6 0 -2
BITMAP
7F40
A740
BB40
2B40
6B40
2900
ENDCHAR
STARTCHAR h
ENCODING 104
SWIDTH 605 0
DWIDTH 5 0
BBX 5 6 0 0
BITMAP
A000
A000
BF00
B740
A380
A240
ENDCHAR
STARTCHAR i
ENCODING 105
SWIDTH 255 0
DWIDTH 2 0
BBX 2 6 0 0
BITMAP
A0
50
A0
A0
A0
A0
ENDCHAR
STARTCHAR j
ENCODING 106
SWIDTH 252 0
DWIDTH 2 0
BBX 3 8 -1 -2
BITMAP
28
14
28
28
28
28
B8
A0
ENDCHAR
STARTCHAR k
ENCODING 107
SWIDTH 536 0
DWIDTH 4 0
BBX 4 6 0 0
BITMAP
A0
A0
AA
BD
BE
A7
ENDCHAR
STARTCHAR l
ENCODING 108
SWIDTH 327 0
DWIDTH 3 0
BBX 3 6 0 0
BITMAP
A0
A0
A0
A0
B0
74
ENDCHAR
STARTCHAR m
ENCODING 109
SWIDTH 851 0
DWIDTH 7 0
BBX 7 4 0 0
BITMAP
BEF0
BB74
A734
A734
ENDCHAR
STARTCHAR n
ENCODING 110
SWIDTH 606 0
DWIDTH 5 0
BBX 5 4 0 0
BITMAP
BF00
B740
A380
A240
ENDCHAR
STARTCHAR o
ENCODING 111
SWIDTH 600 0
DWIDTH 5 0
BBX 5 5 0 0
BITMAP
0400
7F00
A780
B740
2E00
ENDCHAR
STARTCHAR p
ENCODING 112
SWIDTH 582 0
DWIDTH 5 0
BBX 5 6 0 -2
BITMAP
BE00
B740
BB40
BE00
A000
A000
ENDCHAR
STARTCHAR q
ENCODING 113
SWIDTH 582 0
DWIDTH 5 0
BBX 5 6 0 -2
BITMAP
7F40
A740
BB40
2B40
0340
0240
ENDCHAR
STARTCHAR r
ENCODING 114
SWIDTH 457 0
DWIDTH 4 0
BBX 4 5 0 0
BITMAP
04
BD
B4
A0
A0
ENDCHAR
STARTCHAR s
ENCODING 115
SWIDTH 489 0
DWIDTH 4 0
BBX 4 5 0 0
BITMAP
14
BD
B8
6E
BD
ENDCHAR
STARTCHAR t
ENCODING 116
SWIDTH 449 0
DWIDTH 4 0
BBX 4 6 0 0
BITMAP
20
74
FD
74
38
2D
ENDCHAR
STARTCHAR u
ENCODING 117
SWIDTH 606 0
DWIDTH 5 0
BBX 5 4 0 0
BITMAP
A380
A380
BB80
2F40
ENDCHAR
STARTCHAR v
ENCODING 118
SWIDTH 638 0
DWIDTH 5 0
BBX 5 4 0 0
BITMAP
A2C0
7740
2F00
1D00
ENDCHAR
STARTCHAR w
ENCODING 119
SWIDTH 793 0
DWIDTH 6 0
BBX 6 5 0 0
BITMAP
0010
AB70
7FE0
3ED0
29C0
ENDCHAR
STARTCHAR x
ENCODING 120
SWIDTH 567 0
DWIDTH 5 0
BBX 5 4 0 0
BITMAP
A740
7E00
7E00
A740
ENDCHAR
STARTCHAR y
ENCODING 121
SWIDTH 604 0
DWIDTH 5 0
BBX 5 6 0 -2
BITMAP
A280
7B40
2E00
1D00
2C00
2400
ENDCHAR
STARTCHAR z
ENCODING 122
SWIDTH 586 0
DWIDTH 5 0
BBX 5 5 0 0
BITMAP
1500
BF40
1E00
7D00
BF40
ENDCHAR
STARTCHAR braceleft
ENCODING 123
SWIDTH 381 0
DWIDTH 3 0
BBX 3 8 0 -2
BITMAP
28
34
34
B0
70
34
34
18
ENDCHAR
STARTCHAR bar
ENCODING 124
SWIDTH 217 0
DWIDTH 2 0
BBX 2 8 0 -2
BITMAP
90
90
90
90
90
90
90
90
ENDCHAR
STARTCHAR braceright
ENCODING 125
SWIDTH 381 0
DWIDTH 3 0
BBX 3 8 0 -2
BITMAP
A0
30
30
38
34
30
70
90
ENDCHAR
STARTCHAR asciitilde
ENCODING 126
SWIDTH 651 0
DWIDTH 5 0
BBX 5 2 0 1
BITMAP
7E40
5A00
ENDCHAR
STARTCHAR exclamdown
ENCODING 161
SWIDTH 268 0
DWIDTH 2 0
BBX 2 6 0 -2
BITMAP
A0
50
A0
A0
A0
60
ENDCHAR
STARTCHAR cent
ENCODING 162
SWIDTH 434 0
DWIDTH 3 0
BBX 3 6 0 -1
BITMAP
24
7C
A4
B8
28
14
ENDCHAR
STARTCHAR sterling
ENCODING 163
SWIDTH 675 0
DWIDTH 5 0
BBX 6 6 0 0
BITMAP
1A40
3A80
7800
B900
3940
7FD0
ENDCHAR
STARTCHAR currency
ENCODING 164
SWIDTH 677 0
DWIDTH 5 0
BBX 5 6 0 0
BITMAP
A5C0
7B80
A1C0
A1C0
7F80
9580
ENDCHAR
STARTCHAR yen
ENCODING 165
SWIDTH 677 0
DWIDTH 5 0
BBX 5 6 0 0
BITMAP
9080
B2C0
2F40
3F40
1E40
1E00
ENDCHAR
STARTCHAR brokenbar
ENCODING 166
SWIDTH 215 0
DWIDTH 2 0
BBX 2 8 0 -2
BITMAP
90
90
90
40
90
90
90
50
ENDCHAR
STARTCHAR section
ENCODING 167
SWIDTH 560 0
DWIDTH 4 0
BBX 5 8 0 -2
BITMAP
7E00
A500
7E00
A740
7B00
1B40
AB00
2900
ENDCHAR
STARTCHAR dieresis
ENCODING 168
SWIDTH 489 0
DWIDTH 4 0
BBX 4 1 0 5
BITMAP
A7
ENDCHAR
STARTCHAR copyright
ENCODING 169
SWIDTH 711 0
DWIDTH 6 0
BBX 6 6 0 0
BITMAP
2A80
9A50
A450
9A50
6A80
0500
ENDCHAR
STARTCHAR ordfeminine
ENCODING 170
SWIDTH 445 0
DWIDTH 4 0
BBX 4 4 0 2
BITMAP
28
AD
BD
14
ENDCHAR
STARTCHAR guillemotleft
ENCODING 171
SWIDTH 668 0
DWIDTH 5 0
BBX 5 4 0 0
BITMAP
29C0
B740
7780
1980
ENDCHAR
STARTCHAR logicalnot
ENCODING 172
SWIDTH 526 0
DWIDTH 4 0
BBX 4 3 0 1
BITMAP
69
BF
03
ENDCHAR
STARTCHAR registered
ENCODING 174
SWIDTH 711 0
DWIDTH 6 0
BBX 6 6 0 0
BITMAP
2A80
9E50
9B50
9A50
6A80
0500
ENDCHAR
STARTCHAR degree
ENCODING 176
SWIDTH 407 0
DWIDTH 3 0
BBX 3 3 0 3
BITMAP
78
9C
64
ENDCHAR
STARTCHAR plusminus
ENCODING 177
SWIDTH 505 0
DWIDTH 4 0
BBX 4 4 0 0
BITMAP
69
BE
14
BE
ENDCHAR
STARTCHAR twosuperior
ENCODING 178
SWIDTH 455 0
DWIDTH 4 0
BBX 4 5 0 1
BITMAP
78
AD
6C
BD
14
ENDCHAR
STARTCHAR threesuperior
ENCODING 179
SWIDTH 457 0
DWIDTH 4 0
BBX 4 5 0 1
BITMAP
7C
5D
5D
BD
14
ENDCHAR
STARTCHAR acute
ENCODING 180
SWIDTH 605 0
DWIDTH 5 0
BBX 3 2 1 4
BITMAP
B4
50
ENDCHAR
STARTCHAR mu
ENCODING 181
SWIDTH 601 0
DWIDTH 5 0
BBX 5 6 0 -2
BITMAP
A340
A340
BB40
BE40
A000
5000
ENDCHAR
STARTCHAR paragraph
ENCODING 182
SWIDTH 614 0
DWIDTH 5 0
BBX 5 7 0 -2
BITMAP
7F40
BA40
7A40
1A40
1A40
1A40
1940
ENDCHAR
STARTCHAR periodcentered
ENCODING 183
SWIDTH 237 0
DWIDTH 2 0
BBX 2 1 0 2
BITMAP
A0
ENDCHAR
STARTCHAR cedilla
ENCODING 184
SWIDTH 559 0
DWIDTH 4 0
BBX 2 2 1 -2
BITMAP
60
50
ENDCHAR
STARTCHAR onesuperior
ENCODING 185
SWIDTH 321 0
DWIDTH 3 0
BBX 3 5 0 1
BITMAP
24
B4
34
34
10
ENDCHAR
STARTCHAR ordmasculine
ENCODING 186
SWIDTH 439 0
DWIDTH 4 0
BBX 4 4 0 2
BITMAP
24
AD
AC
14
ENDCHAR
STARTCHAR guillemotright
ENCODING 187
SWIDTH 669 0
DWIDTH 5 0
BBX 5 4 0 0
BITMAP
A700
3AC0
7680
9600
ENDCHAR
STARTCHAR onequarter
ENCODING 188
SWIDTH 786 0
DWIDTH 6 0
BBX 6 6 0 0
BITMAP
7180
7200
3650
09A0
16E0
2020
ENDCHAR
STARTCHAR onehalf
ENCODING 189
SWIDTH 804 0
DWIDTH 6 0
BBX 6 6 0 0
BITMAP
7180
7200
3640
0AA0
15A0
22E0
ENDCHAR
STARTCHAR threequarters
ENCODING 190
SWIDTH 842 0
DWIDTH 7 0
BBX 7 6 0 0
BITMAP
7880
1940
6E50
15E4
09F4
1424
ENDCHAR
STARTCHAR questiondown
ENCODING 191
SWIDTH 511 0
DWIDTH 4 0
BBX 4 6 0 -2
BITMAP
28
04
28
A0
AB
29
ENDCHAR
STARTCHAR Agrave
ENCODING 192
SWIDTH 765 0
DWIDTH 6 0
BBX 6 8 0 0
BITMAP
0900
0A00
0600
0F00
2F80
3AC0
BAE0
A070
ENDCHAR
STARTCHAR Aacute
ENCODING 193
SWIDTH 765 0
DWIDTH 6 0
BBX 6 8 0 0
BITMAP
0640
0A00
0600
0F00
2F80
3AC0
BAE0
A070
ENDCHAR
STARTCHAR Acircumflex
ENCODING 194
SWIDTH 765 0
DWIDTH 6 0
BBX 6 8 0 0
BITMAP
1A40
1A40
0600
0F00
2F80
3AC0
BAE0
A070
ENDCHAR
STARTCHAR Atilde
ENCODING 195
SWIDTH 765 0
DWIDTH 6 0
BBX 6 8 0 0
BITMAP
1A40
1640
0600
0F00
2F80
3AC0
BAE0
A070
ENDCHAR
STARTCHAR Adieresis
ENCODING 196
SWIDTH 765 0
DWIDTH 6 0
BBX 6 8 0 0
BITMAP
1580
1540
0600
0F00
2F80
3AC0
BAE0
A070
ENDCHAR
STARTCHAR Aring
ENCODING 197
SWIDTH 765 0
DWIDTH 6 0
BBX 6 8 0 0
BITMAP
0100
0A00
0A00
0F40
2F80
3AC0
7AE0
A070
ENDCHAR
STARTCHAR AE
ENCODING 198
SWIDTH 1148 0
DWIDTH 9 0
BBX 9 6 0 0
BITMAP
00BF80
02FA40
0BBA00
2EBA00
7AF540
E07FC0
ENDCHAR
STARTCHAR Ccedilla
ENCODING 199
SWIDTH 679 0
DWIDTH 5 0
BBX 5 8 0 -2
BITMAP
1B80
7A80
A000
A000
7980
1F80
0600
0500
ENDCHAR
STARTCHAR Egrave
ENCODING 200
SWIDTH 638 0
DWIDTH 5 0
BBX 5 8 0 0
BITMAP
1900
1A00
BF80
BA40
BA00
BA00
B540
BF80
ENDCHAR
STARTCHAR Eacute
ENCODING 201
SWIDTH 638 0
DWIDTH 5 0
BBX 5 8 0 0
BITMAP
0600
1900
BF80
BA40
BA00
BA00
B540
BF80
ENDCHAR
STARTCHAR Ecircumflex
ENCODING 202
SWIDTH 638 0
DWIDTH 5 0
BBX 5 8 0 0
BITMAP
1A00
2600
BF80
BA40
BA00
BA00
B540
BF80
ENDCHAR
STARTCHAR Edieresis
ENCODING 203
SWIDTH 638 0
DWIDTH 5 0
BBX 5 8 0 0
BITMAP
2240
2240
BF80
BA40
BA00
BA00
B540
BF80
ENDCHAR
STARTCHAR Igrave
ENCODING 204
SWIDTH 267 0
DWIDTH 2 0
BBX 2 8 0 0
BITMAP
90
A0
60
A0
A0
A0
A0
A0
ENDCHAR
STARTCHAR Iacute
ENCODING 205
SWIDTH 269 0
DWIDTH 2 0
BBX 3 8 0 0
BITMAP
64
A0
60
A0
A0
A0
A0
A0
ENDCHAR
STARTCHAR Icircumflex
ENCODING 206
SWIDTH 270 0
DWIDTH 2 0
BBX 4 8 -1 0
BITMAP
69
69
18
28
28
28
28
28
ENDCHAR
STARTCHAR Idieresis
ENCODING 207
SWIDTH 268 0
DWIDTH 2 0
BBX 4 8 -1 0
BITMAP
66
56
18
28
28
28
28
28
ENDCHAR
STARTCHAR Eth
ENCODING 208
SWIDTH 775 0
DWIDTH 6 0
BBX 6 6 0 0
BITMAP
3E40
3AD0
78B0
78B0
3AE0
3F80
ENDCHAR
STARTCHAR Ntilde
ENCODING 209
SWIDTH 720 0
DWIDTH 6 0
BBX 6 8 0 0
BITMAP
1A40
1600
A090
B8D0
BDD0
ABD0
A3D0
A1D0
ENDCHAR
STARTCHAR Ograve
ENCODING 210
SWIDTH 775 0
DWIDTH 6 0
BBX 6 8 0 0
BITMAP
0900
0B00
1B40
7AE0
A0B0
A0B0
79E0
2F80
ENDCHAR
STARTCHAR Oacute
ENCODING 211
SWIDTH 775 0
DWIDTH 6 0
BBX 6 8 0 0
BITMAP
0640
0A00
1B40
7AE0
A0B0
A0B0
79E0
2F80
ENDCHAR
STARTCHAR Ocircumflex
ENCODING 212
SWIDTH 775 0
DWIDTH 6 0
BBX 6 8 0 0
BITMAP
0A40
1A40
1B40
7AE0
A0B0
A0B0
79E0
2F80
ENDCHAR
STARTCHAR Otilde
ENCODING 213
SWIDTH 775 0
DWIDTH 6 0
BBX 6 8 0 0
BITMAP
0A80
0640
1B40
7AE0
A0B0
A0B0
79E0
2F80
ENDCHAR
STARTCHAR Odieresis
ENCODING 214
SWIDTH 775 0
DWIDTH 6 0
BBX 6 8 0 0
BITMAP
2580
1540
1B40
7AE0
A0B0
A0B0
79E0
2F80
ENDCHAR
STARTCHAR multiply
ENCODING 215
SWIDTH 521 0
DWIDTH 4 0
BBX 4 4 0 0
BITMAP
A6
7D
7E
56
ENDCHAR
STARTCHAR Oslash
ENCODING 216
SWIDTH 775 0
DWIDTH 6 0
BBX 6 7 0 -1
BITMAP
1BC0
7BE0
A7B0
AAB0
7EE0
2F80
1400
ENDCHAR
STARTCHAR Ugrave
ENCODING 217
SWIDTH 726 0
DWIDTH 6 0
BBX 6 8 0 0
BITMAP
1400
1900
A090
A0D0
A0D0
A0D0
76D0
2F40
ENDCHAR
STARTCHAR Uacute
ENCODING 218
SWIDTH 726 0
DWIDTH 6 0
BBX 6 8 0 0
BITMAP
0640
0A00
A090
A0D0
A0D0
A0D0
76D0
2F40
ENDCHAR
STARTCHAR Ucircumflex
ENCODING 219
SWIDTH 726 0
DWIDTH 6 0
BBX 6 8 0 0
BITMAP
1A40
1A40
A090
A0D0
A0D0
A0D0
76D0
2F40
ENDCHAR
STARTCHAR Udieresis
ENCODING 220
SWIDTH 726 0
DWIDTH 6 0
BBX 6 8 0 0
BITMAP
2640
1540
A090
A0D0
A0D0
A0D0
76D0
2F40
ENDCHAR
STARTCHAR Yacute
ENCODING 221
SWIDTH 686 0
DWIDTH 5 0
BBX 6 8 0 0
BITMAP
0600
0900
A0D0
76C0
2F40
1E00
0D00
0D00
ENDCHAR
STARTCHAR Thorn
ENCODING 222
SWIDTH 634 0
DWIDTH 5 0
BBX 5 6 0 0
BITMAP
A000
BF40
A780
A680
BF40
A400
ENDCHAR
STARTCHAR germandbls
ENCODING 223
SWIDTH 633 0
DWIDTH 5 0
BBX 5 6 0 0
BITMAP
7E00
B700
AA00
A740
A680
AB80
ENDCHAR
STARTCHAR agrave
ENCODING 224
SWIDTH 596 0
DWIDTH 5 0
BBX 5 6 0 0
BITMAP
2D00
0500
7F40
A740
BB40
2F40
ENDCHAR
STARTCHAR aacute
ENCODING 225
SWIDTH 596 0
DWIDTH 5 0
BBX 5 6 0 0
BITMAP
1E00
1400
7F40
A740
BB40
2F40
ENDCHAR
STARTCHAR acircumflex
ENCODING 226
SWIDTH 596 0
DWIDTH 5 0
BBX 5 6 0 0
BITMAP
2F00
1500
7F40
A740
BB40
2F40
ENDCHAR
STARTCHAR atilde
ENCODING 227
SWIDTH 596 0
DWIDTH 5 0
BBX 5 6 0 0
BITMAP
2F00
1500
7F40
A740
BB40
2F40
ENDCHAR
STARTCHAR adieresis
ENCODING 228
SWIDTH 596 0
DWIDTH 5 0
BBX 5 6 0 0
BITMAP
3740
1100
7F40
A740
BB40
2F40
ENDCHAR
STARTCHAR aring
ENCODING 229
SWIDTH 596 0
DWIDTH 5 0
BBX 5 6 0 0
BITMAP
0900
0900
7F40
A740
BB40
2F40
ENDCHAR
STARTCHAR ae
ENCODING 230
SWIDTH 910 0
DWIDTH 7 0
BBX 7 5 0 0
BITMAP
0410
7FF8
67AC
ABA4
BEF8
ENDCHAR
STARTCHAR ccedilla
ENCODING 231
SWIDTH 524 0
DWIDTH 4 0
BBX 4 7 0 -2
BITMAP
04
7F
B5
B5
2E
1C
04
ENDCHAR
STARTCHAR egrave
ENCODING 232
SWIDTH 573 0
DWIDTH 5 0
BBX 5 6 0 0
BITMAP
2D00
0900
7F00
B740
BA00
7F00
ENDCHAR
STARTCHAR eacute
ENCODING 233
SWIDTH 573 0
DWIDTH 5 0
BBX 5 6 0 0
BITMAP
1E00
1400
7F00
B740
BA00
7F00
ENDCHAR
STARTCHAR ecircumflex
ENCODING 234
SWIDTH 573 0
DWIDTH 5 0
BBX 5 6 0 0
BITMAP
3E00
1500
7F00
B740
BA00
7F00
ENDCHAR
STARTCHAR edieresis
ENCODING 235
SWIDTH 573 0
DWIDTH 5 0
BBX 5 6 0 0
BITMAP
7700
1500
7F00
B740
BA00
7F00
ENDCHAR
STARTCHAR igrave
ENCODING 236
SWIDTH 255 0
DWIDTH 2 0
BBX 3 6 -1 0
BITMAP
78
14
28
28
28
28
ENDCHAR
STARTCHAR iacute
ENCODING 237
SWIDTH 255 0
DWIDTH 2 0
BBX 3 6 0 0
BITMAP
B4
50
A0
A0
A0
A0
ENDCHAR
STARTCHAR icircumflex
ENCODING 238
SWIDTH 255 0
DWIDTH 2 0
BBX 4 6 -1 0
BITMAP
7D
14
28
28
28
28
ENDCHAR
STARTCHAR idieresis
ENCODING 239
SWIDTH 255 0
DWIDTH 2 0
BBX 4 6 -1 0
BITMAP
AA
14
28
28
28
28
ENDCHAR
STARTCHAR eth
ENCODING 240
SWIDTH 585 0
DWIDTH 5 0
BBX 5 7 0 0
BITMAP
0400
2C00
1B00
7F40
A740
B740
3E00
ENDCHAR
STARTCHAR ntilde
ENCODING 241
SWIDTH 606 0
DWIDTH 5 0
BBX 5 6 0 0
BITMAP
3F00
1400
BF00
B740
A380
A240
ENDCHAR
STARTCHAR ograve
ENCODING 242
SWIDTH 600 0
DWIDTH 5 0
BBX 5 6 0 0
BITMAP
2D00
0900
7F00
A780
B740
2E00
ENDCHAR
STARTCHAR oacute
ENCODING 243
SWIDTH 600 0
DWIDTH 5 0
BBX 5 6 0 0
BITMAP
1E00
1800
7F00
A780
B740
2E00
ENDCHAR
STARTCHAR ocircumflex
ENCODING 244
SWIDTH 600 0
DWIDTH 5 0
BBX 5 6 0 0
BITMAP
3E00
1500
7F00
A780
B740
2E00
ENDCHAR
STARTCHAR otilde
ENCODING 245
SWIDTH 600 0
DWIDTH 5 0
BBX 5 6 0 0
BITMAP
3F00
1400
7F00
A780
B740
2E00
ENDCHAR
STARTCHAR odieresis
ENCODING 246
SWIDTH 600 0
DWIDTH 5 0
BBX 5 6 0 0
BITMAP
7700
1500
7F00
A780
B740
2E00
ENDCHAR
STARTCHAR divide
ENCODING 247
SWIDTH 503 0
DWIDTH 4 0
BBX 4 5 0 0
BITMAP
14
28
AA
69
28
ENDCHAR
STARTCHAR oslash
ENCODING 248
SWIDTH 600 0
DWIDTH 5 0
BBX 5 7 0 -1
BITMAP
0100
0740
7F00
A780
B740
7E00
7000
ENDCHAR
STARTCHAR ugrave
ENCODING 249
SWIDTH 606 0
DWIDTH 5 0
BBX 5 6 0 0
BITMAP
2D00
0500
A380
A380
BB80
2F40
ENDCHAR
STARTCHAR uacute
ENCODING 250
SWIDTH 606 0
DWIDTH 5 0
BBX 5 6 0 0
BITMAP
1E00
1400
A380
A380
BB80
2F40
ENDCHAR
STARTCHAR ucircumflex
ENCODING 251
SWIDTH 606 0
DWIDTH 5 0
BBX 5 6 0 0
BITMAP
3F00
1100
A380
A380
BB80
2F40
ENDCHAR
STARTCHAR udieresis
ENCODING 252
SWIDTH 606 0
DWIDTH 5 0
BBX 5 6 0 0
BITMAP
7740
1100
A380
A380
BB80
2F40
ENDCHAR
STARTCHAR yacute
ENCODING 253
SWIDTH 604 0
DWIDTH 5 0
BBX 5 8 0 -2
BITMAP
1E00
1400
A280
7B40
2E00
1D00
2C00
2400
ENDCHAR
STARTCHAR thorn
ENCODING 254
SWIDTH 580 0
DWIDTH 5 0
BBX 5 8 0 -2
BITMAP
A000
A000
BE00
B740
BB40
BE00
A000
5000
ENDCHAR
STARTCHAR ydieresis
ENCODING 255
SWIDTH 604 0
DWIDTH 5 0
BBX 5 8 0 -2
BITMAP
7740
1100
A280
7B40
2E00
1D00
2C00
2400
ENDCHAR
STARTCHAR dotlessi
ENCODING 305
SWIDTH 255 0
DWIDTH 2 0
BBX 2 4 0 0
BITMAP
A0
A0
A0
A0
ENDCHAR
STARTCHAR Lslash
ENCODING 321
SWIDTH 687 0
DWIDTH 6 0
BBX 6 6 0 0
BITMAP
2400
3800
7E00
B800
3940
2FD0
ENDCHAR
STARTCHAR lslash
ENCODING 322
SWIDTH 468 0
DWIDTH 4 0
BBX 4 6 0 0
BITMAP
34
34
7E
B8
38
2D
ENDCHAR
STARTCHAR OE
ENCODING 338
SWIDTH 1092 0
DWIDTH 9 0
BBX 9 6 0 0
BITMAP
1BFF40
7AEA40
A0E900
A0F900
79E500
1FFF40
ENDCHAR
STARTCHAR oe
ENCODING 339
SWIDTH 944 0
DWIDTH 8 0
BBX 8 5 0 0
BITMAP
0410
7FFC
A7DD
B7E8
3EBC
ENDCHAR
STARTCHAR Scaron
ENCODING 352
SWIDTH 583 0
DWIDTH 5 0
BBX 5 8 0 0
BITMAP
2A00
1900
2E00
B600
B900
1B40
A740
7E00
ENDCHAR
STARTCHAR scaron
ENCODING 353
SWIDTH 489 0
DWIDTH 4 0
BBX 4 6 0 0
BITMAP
BD
14
BD
B8
6E
BD
ENDCHAR
STARTCHAR Ydieresis
ENCODING 376
SWIDTH 686 0
DWIDTH 5 0
BBX 6 8 0 0
BITMAP
2640
2640
A0D0
76C0
2F40
1E00
0D00
0D00
ENDCHAR
STARTCHAR Zcaron
ENCODING 381
SWIDTH 643 0
DWIDTH 5 0
BBX 5 8 0 0
BITMAP
2A00
1900
BF80
6B80
0E00
2C00
7940
BFC0
ENDCHAR
STARTCHAR zcaron
ENCODING 382
SWIDTH 586 0
DWIDTH 5 0
BBX 5 6 0 0
BITMAP
3F00
1500
BF40
1E00
7D00
BF40
ENDCHAR
STARTCHAR florin
ENCODING 402
SWIDTH 529 0
DWIDTH 4 0
BBX 4 8 0 -2
BITMAP
0B
1D
7F
2D
28
28
74
A0
ENDCHAR
STARTCHAR circumflex
ENCODING 710
SWIDTH 603 0
DWIDTH 5 0
BBX 3 2 1 4
BITMAP
F8
44
ENDCHAR
STARTCHAR caron
ENCODING 711
SWIDTH 600 0
DWIDTH 5 0
BBX 3 2 1 4
BITMAP
FC
10
ENDCHAR
STARTCHAR dotaccent
ENCODING 729
SWIDTH 285 0
DWIDTH 2 0
BBX 2 2 0 5
BITMAP
60
10
ENDCHAR
STARTCHAR ring
ENCODING 730
SWIDTH 378 0
DWIDTH 3 0
BBX 3 3 0 5
BITMAP
10
54
24
ENDCHAR
STARTCHAR ogonek
ENCODING 731
SWIDTH 570 0
DWIDTH 5 0
BBX 2 2 1 -2
BITMAP
A0
10
ENDCHAR
STARTCHAR tilde
ENCODING 732
SWIDTH 584 0
DWIDTH 5 0
BBX 4 2 0 4
BITMAP
7E
04
ENDCHAR
STARTCHAR endash
ENCODING 8211
SWIDTH 561 0
DWIDTH 4 0
BBX 5 2 0 1
BITMAP
BF40
5500
ENDCHAR
STARTCHAR emdash
ENCODING 8212
SWIDTH 693 0
DWIDTH 6 0
BBX 6 2 0 1
BITMAP
BFD0
5540
ENDCHAR
STARTCHAR quoteleft
ENCODING 8216
SWIDTH 237 0
DWIDTH 2 0
BBX 2 3 0 3
BITMAP
50
90
A0
ENDCHAR
STARTCHAR quoteright
ENCODING 8217
SWIDTH 237 0
DWIDTH 2 0
BBX 2 3 0 3
BITMAP
A0
A0
90
ENDCHAR
STARTCHAR quotesinglbase
ENCODING 8218
SWIDTH 237 0
DWIDTH 2 0
BBX 2 3 0 -1
BITMAP
50
A0
90
ENDCHAR
STARTCHAR quotedblleft
ENCODING 8220
SWIDTH 482 0
DWIDTH 4 0
BBX 4 3 0 3
BITMAP
55
99
A9
ENDCHAR
STARTCHAR quotedblright
ENCODING 8221
SWIDTH 482 0
DWIDTH 4 0
BBX 4 3 0 3
BITMAP
A9
AA
98
ENDCHAR
STARTCHAR quotedblbase
ENCODING 8222
SWIDTH 482 0
DWIDTH 4 0
BBX 4 3 0 -1
BITMAP
55
AA
99
ENDCHAR
STARTCHAR dagger
ENCODING 8224
SWIDTH 527 0
DWIDTH 4 0
BBX 4 8 0 -2
BITMAP
28
28
BF
28
28
28
28
14
ENDCHAR
STARTCHAR daggerdbl
ENCODING 8225
SWIDTH 527 0
DWIDTH 4 0
BBX 4 8 0 -2
BITMAP
28
28
BF
28
6E
6E
28
14
ENDCHAR
STARTCHAR bullet
ENCODING 8226
SWIDTH 342 0
DWIDTH 3 0
BBX 3 3 0 1
BITMAP
60
B4
60
ENDCHAR
STARTCHAR ellipsis
ENCODING 8230
SWIDTH 911 0
DWIDTH 7 0
BBX 7 2 0 0
BITMAP
5104
A35C
ENDCHAR
STARTCHAR perthousand
ENCODING 8240
SWIDTH 1223 0
DWIDTH 10 0
BBX 10 6 0 0
BITMAP
788000
9D8000
7A0000
06B2C0
09AA90
14F6D0
ENDCHAR
STARTCHAR guilsinglleft
ENCODING 8249
SWIDTH 383 0
DWIDTH 3 0
BBX 3 4 0 0
BITMAP
28
B4
74
18
ENDCHAR
STARTCHAR guilsinglright
ENCODING 8250
SWIDTH 383 0
DWIDTH 3 0
BBX 3 4 0 0
BITMAP
A0
78
78
A0
ENDCHAR
STARTCHAR fraction
ENCODING 8260
SWIDTH 433 0
DWIDTH 3 0
BBX 4 6 0 0
BITMAP
02
05
08
14
20
50
ENDCHAR
STARTCHAR Euro
ENCODING 8364
SWIDTH 612 0
DWIDTH 5 0
BBX 5 6 0 0
BITMAP
1F80
3900
BA00
BE00
3940
1F80
ENDCHAR
STARTCHAR trademark
ENCODING 8482
SWIDTH 840 0
DWIDTH 7 0
BBX 7 3 0 2
BITMAP
BA64
32F4
3264
ENDCHAR
STARTCHAR minus
ENCODING 8722
SWIDTH 581 0
DWIDTH 5 0
BBX 5 2 0 1
BITMAP
BF40
5500
ENDCHAR
STARTCHAR f_f
ENCODING 64256
SWIDTH 803 0
DWIDTH 6 0
BBX 7 6 0 0
BITMAP
2DF0
79D0
FFF4
75D0
35C0
35C0
ENDCHAR
STARTCHAR fi
ENCODING 64257
SWIDTH 709 0
DWIDTH 6 0
BBX 6 6 0 0
BITMAP
2DD0
7840
BDD0
74D0
34D0
34D0
ENDCHAR
STARTCHAR fl
ENCODING 64258
SWIDTH 774 0
DWIDTH 6 0
BBX 6 6 0 0
BITMAP
2DD0
78D0
BED0
74D0
34E0
34B0
ENDCHAR
STARTCHAR f_f_i
ENCODING 64259
SWIDTH 1059 0
DWIDTH 8 0
BBX 8 6 0 0
BITMAP
2DF7
79D1
FFF7
75D7
35C7
35C7
ENDCHAR
STARTCHAR .notdef
ENCODING -1
SWIDTH 500 0
DWIDTH 4 0
BBX 1 1 0 0
BITMAP
00
ENDCHAR
STARTCHAR .null
ENCODING -1
SWIDTH 0 0
DWIDTH 0 0
BBX 1 1 0 0
BITMAP
00
ENDCHAR
STARTCHAR nonmarkingreturn
ENCODING -1
SWIDTH 333 0
DWIDTH 3 0
BBX 1 1 0 0
BITMAP
00
ENDCHAR
STARTCHAR f_t
ENCODING -1
SWIDTH 814 0
DWIDTH 7 0
BBX 7 6 0 0
BITMAP
2D80
79D0
FFF4
75D0
35D0
34B0
ENDCHAR
STARTCHAR t_t
ENCODING -1
SWIDTH 794 0
DWIDTH 6 0
BBX 7 6 0 0
BITMAP
2180
76D0
FFF4
76D0
39D0
2DB0
ENDCHAR
STARTCHAR l_l
ENCODING -1
SWIDTH 626 0
DWIDTH 5 0
BBX 5 6 0 0
BITMAP
AB00
AB00
AB00
AB00
BB40
7780
ENDCHAR
STARTCHAR j_j
ENCODING -1
SWIDTH 521 0
DWIDTH 4 0
BBX 5 8 -1 -2
BITMAP
2980
1440
2A80
2AC0
2AC0
2AC0
7A80
A640
ENDCHAR
ENDFONT
